# xmcd CD database file generated by Grip 3.3.1
# 
# Track frame offsets:
#       150
#       15809
#       34314
#       57028
#       77003
#       98969
#       121122
#       144376
#       162205
#       180846
#       202381
#       225097
#       247917
#       265411
#       288915
#       311292
# 
# Disc length: 4406 seconds
# 
# Revision: 20
# Processed by: cddbd v1.5.2PL0 Copyright (c) Steve Scherf et al.
# Submitted via: Grip 3.3.1
# 
DISCID=c0113410
DTITLE=J. K. Rowling - Harry Potter and the Goblet of Fire - Disc 3
DYEAR=2000
DGENRE=Other
TTITLE0=Chapter 7H - Bagman and Crouch
TTITLE1=Chapter 8A - The Quidditch World Cup
TTITLE2=Chapter 8B - The Quidditch World Cup
TTITLE3=Chapter 8C - The Quidditch World Cup
TTITLE4=Chapter 8D - The Quidditch World Cup
TTITLE5=Chapter 8E - The Quidditch World Cup
TTITLE6=Chapter 8F - The Quidditch World Cup
TTITLE7=Chapter 8G - The Quidditch World Cup
TTITLE8=Chapter 8H - The Quidditch World Cup
TTITLE9=Chapter 9A - The Dark Mark
TTITLE10=Chapter 9B - The Dark Mark
TTITLE11=Chapter 9C - The Dark Mark
TTITLE12=Chapter 9D - The Dark Mark
TTITLE13=Chapter 9E - The Dark Mark
TTITLE14=Chapter 9F - The Dark Mark
TTITLE15=Chapter 9G - The Dark Mark
EXTD=YEAR: 2000
EXTT0=
EXTT1=
EXTT2=
EXTT3=
EXTT4=
EXTT5=
EXTT6=
EXTT7=
EXTT8=
EXTT9=
EXTT10=
EXTT11=
EXTT12=
EXTT13=
EXTT14=
EXTT15=
PLAYORDER=
